<svg xmlns="http://www.w3.org/2000/svg" width="64" height="64" viewBox="0 0 128 128"><path d="M114.325 80.749c-.29 0-.578-.076-.832-.224l-2.65-1.568c-.396-.221-.203-.3-.072-.345.528-.184.635-.227 1.198-.545.059-.033.136-.021.197.015l2.035 1.209a.26.26 0 0 0 .246 0l7.937-4.581a.25.25 0 0 0 .122-.215v-9.16a.26.26 0 0 0-.123-.219l-7.934-4.577a.25.25 0 0 0-.245 0l-7.933 4.578a.26.26 0 0 0-.125.218v9.16c0 .088.049.171.125.212l2.174 1.257c1.18.589 1.903-.105 1.903-.803v-9.045c0-.127.103-.228.23-.228h1.007c.125 0 .229.101.229.228v9.045c0 1.574-.857 2.477-2.35 2.477-.459 0-.82 0-1.828-.496l-2.081-1.198a1.68 1.68 0 0 1-.832-1.448v-9.16c0-.595.317-1.15.832-1.446l7.937-4.587a1.74 1.74 0 0 1 1.667 0l7.937 4.587c.514.297.833.852.833 1.446v9.16a1.68 1.68 0 0 1-.833 1.448l-7.937 4.582a1.65 1.65 0 0 1-.834.223m2.453-6.311c-3.475 0-4.202-1.595-4.202-2.932a.23.23 0 0 1 .23-.229h1.026a.23.23 0 0 1 .228.194c.154 1.045.617 1.572 2.718 1.572 1.671 0 2.383-.378 2.383-1.266 0-.512-.202-.891-2.8-1.146-2.172-.215-3.515-.694-3.515-2.433 0-1.601 1.35-2.557 3.612-2.557 2.543 0 3.801.883 3.96 2.777a.24.24 0 0 1-.06.176.24.24 0 0 1-.168.073h-1.031a.23.23 0 0 1-.223-.179c-.248-1.1-.848-1.451-2.479-1.451-1.825 0-2.037.637-2.037 1.112 0 .577.25.745 2.715 1.071 2.439.323 3.598.779 3.598 2.494.001 1.733-1.441 2.724-3.955 2.724M97.982 68.43c.313-.183.506-.517.506-.88v-2.354c0-.362-.192-.696-.506-.879l-8.364-4.856a1.02 1.02 0 0 0-1.019-.002l-8.416 4.859a1.02 1.02 0 0 0-.508.88v9.716c0 .365.196.703.514.884l8.363 4.765c.308.177.686.178.997.006l5.058-2.812a.508.508 0 0 0 .006-.885l-8.468-4.86a.51.51 0 0 1-.256-.44v-3.046c0-.182.097-.349.254-.439l2.637-1.52a.5.5 0 0 1 .507 0l2.637 1.52a.51.51 0 0 1 .255.439v2.396a.507.507 0 0 0 .764.44z" style="fill:gray"/><path d="M88.984 67.974a.2.2 0 0 1 .195 0l1.615.933c.06.035.097.1.097.169v1.865c0 .07-.037.134-.097.169l-1.615.932a.2.2 0 0 1-.195 0l-1.614-.932a.2.2 0 0 1-.098-.169v-1.865c0-.069.037-.134.098-.169zm-21.901 3.88c0 .09-.048.174-.127.22l-2.89 1.666a.25.25 0 0 1-.254 0l-2.89-1.666a.26.26 0 0 1-.127-.22v-3.338c0-.09.049-.175.127-.221l2.89-1.668a.25.25 0 0 1 .255 0l2.891 1.668a.26.26 0 0 1 .126.221v3.338zm.781-24.716a.51.51 0 0 0-.756.444v12.915a.36.36 0 0 1-.177.308.36.36 0 0 1-.356 0l-2.108-1.215a1.02 1.02 0 0 0-1.015 0l-8.418 4.858a1.02 1.02 0 0 0-.509.881v9.719c0 .363.194.698.508.881l8.418 4.861c.314.182.702.182 1.017 0l8.42-4.861a1.02 1.02 0 0 0 .508-.881V50.821c0-.368-.2-.708-.521-.888zM38.238 59.407a1.01 1.01 0 0 1 1.016 0l8.418 4.857c.314.182.508.518.508.881v9.722c0 .363-.194.699-.508.881l-8.417 4.861a1.02 1.02 0 0 1-1.017 0l-8.415-4.861a1.02 1.02 0 0 1-.508-.881v-9.723c0-.362.194-.698.508-.88zM22.93 65.064c0-.366-.192-.702-.508-.883l-8.415-4.843a1 1 0 0 0-.464-.133h-.087a1 1 0 0 0-.464.133l-8.416 4.843a1.02 1.02 0 0 0-.509.883l.018 13.04c0 .182.095.351.254.439a.49.49 0 0 0 .505 0l5-2.864c.316-.188.509-.519.509-.882v-6.092c0-.364.192-.699.507-.881l2.13-1.226a1 1 0 0 1 .508-.137c.174 0 .352.044.507.137l2.128 1.226c.315.182.509.517.509.881v6.092c0 .363.195.696.509.882l5 2.864a.508.508 0 0 0 .76-.439z" style="fill:gray"/></svg>